# xmcd
#
# Track frame offsets:
#	150
#	13495
#	41097
#	73772
#	99972
#	127265
#	153340
#	186707
#
# Disc length: 2822 seconds
#
# Revision: 1
# Processed by: cddbd v1.5.2PL0 Copyright (c) Steve Scherf et al.
# Submitted via: audiograbber 1.83.01
#
DISCID=770b0408
DTITLE=Bob Sinclar - CD Single - Defected
DYEAR=2000
DGENRE=Dance
TTITLE0=I Feel For You (Radio Edit)
TTITLE1=I Feel For You (Original Club Mix)
TTITLE2=I Feel For You (CRZ's Peak Hour Vocal Remix)
TTITLE3=I Feel For You (CRZ's Peak Hour Dub)
TTITLE4=I Feel For You (Spiller Vocal Remix)
TTITLE5=I Feel For You (Spiller Dub Remix)
TTITLE6=I Feel For You (Astrotrax Master Vocal)
TTITLE7=I Feel For You (Astrotrax Master Dub)
EXTD=
EXTT0=
EXTT1=
EXTT2=
EXTT3=
EXTT4=
EXTT5=
EXTT6=
EXTT7=
PLAYORDER=
